<svg id="icon-bilibili" viewBox="0 0 32 32">
<path d="M24.297 4.115c0.313 0.313 0.488 0.737 0.488 1.179s-0.176 0.866-0.488 1.179l-1.524 1.523h1.56c1.326 0 2.598 0.527 3.536 1.465s1.464 2.21 1.464 3.536v10c0 2.761-2.239 5-5 5h-16.667c-2.761 0-5-2.239-5-5v-10c0-2.761 2.239-5 5-5h1.555l-1.521-1.523c-0.433-0.418-0.607-1.038-0.455-1.621s0.607-1.038 1.19-1.191c0.583-0.153 1.202 0.021 1.621 0.454l3.536 3.536c0.105 0.105 0.193 0.22 0.264 0.343h4.284c0.071-0.123 0.16-0.24 0.265-0.344l3.535-3.536c0.313-0.313 0.737-0.488 1.179-0.488s0.866 0.176 1.179 0.488zM24.333 11.341h-16.667c-0.873-0-1.598 0.672-1.663 1.543l-0.004 0.125v10c0 0.879 0.68 1.599 1.543 1.661l0.124 0.005h16.667c0.873 0 1.598-0.672 1.663-1.543l0.004-0.124v-10c0-0.92-0.747-1.667-1.667-1.667v-0.001zM11 14.675c0.92 0 1.667 0.747 1.667 1.667v1.667c0 0.92-0.746 1.667-1.667 1.667s-1.667-0.746-1.667-1.667v-1.667c0-0.92 0.747-1.667 1.667-1.667v0zM21 14.675c0.92 0 1.667 0.747 1.667 1.667v1.667c0 0.92-0.746 1.667-1.667 1.667s-1.667-0.746-1.667-1.667v-1.667c0-0.92 0.747-1.667 1.667-1.667z"></path>
</svg>