<svg id="icon-QQ" viewBox="0 0 32 32">
<path d="M26.133 21.6c0 0-0.667 2-2.133 3.867 0 0 2.4 0.8 2.267 2.933 0 0 0.133 2.4-5.2 2.267 0 0-3.733-0.267-4.8-1.867h-0.933c-1.067 1.6-4.667 1.867-4.667 1.867-5.2 0.133-5.2-2.267-5.2-2.267-0.267-2.133 2.267-2.933 2.267-2.933-1.333-1.867-2.133-3.867-2.133-3.867-3.2 5.333-2.933-0.8-2.933-0.8 0.667-3.6 3.2-5.867 3.2-5.867-0.4-3.2 0.933-3.733 0.933-3.733 0.267-10 8.933-9.867 9.067-9.867s8.8-0.133 9.067 9.867c0 0 1.333 0.533 0.933 3.867 0 0 2.533 2.4 3.2 5.867 0 0 0.4 6-2.933 0.667v0 0 0z"></path>
</svg>